<?xml version="1.0" encoding="utf-8"?>
<!-- Generator: Adobe Illustrator 25.1.0, SVG Export Plug-In . SVG Version: 6.00 Build 0)  -->
<svg xmlns="http://www.w3.org/2000/svg"
  xmlns:xlink="http://www.w3.org/1999/xlink" viewBox="0 0 112.01 164.08" xml:space="preserve">
  <g>
    <path fill="#6D7D87" d="M102.59,91.02l-46.37,65.07L9.84,91.02c-0.13-0.21-0.36-0.35-0.61-0.36l-4.32-0.23
      c-0.61-0.03-1,0.62-0.69,1.14l46.76,66.82H9.44c-0.42,0-0.76,0.34-0.76,0.76v4.17c0,0.42,0.34,0.76,0.76,0.76h92.55
      c0.42,0,0.76-0.34,0.76-0.76v-4.17c0-0.42-0.34-0.76-0.76-0.76H61.44l46.76-66.82c0.31-0.52-0.08-1.18-0.69-1.14l-4.32,0.23
      C102.94,90.67,102.72,90.81,102.59,91.02z" />
    <path fill="#6D7D87" d="M52.87,110.64v28.65c0,0.42,0.34,0.76,0.76,0.76h4.17c0.42,0,0.76-0.34,0.76-0.76v-28.62
      c29.75-1.32,53.45-25.57,53.45-55.3C112.01,24.79,86.94,0,56.01,0C25.07,0,0,24.79,0,55.36C0,84.9,23.4,109.03,52.87,110.64z
      M58.56,7.92c24.34,1.26,43.87,20.34,45.45,44.32H87.53C86.52,28.7,74.13,9.79,58.56,7.92L58.56,7.92z M58.56,10.98
      c12.11,2.21,22.02,19.94,22.92,41.25H58.56V10.98z M58.56,57.92H81.5c-0.74,21.57-10.72,39.6-22.94,41.83V57.92z M58.56,102.81
      c15.7-1.89,28.16-21.09,29-44.89h16.49C102.76,82.16,83.09,101.54,58.56,102.81L58.56,102.81z M52.87,99.61
      c-11.96-2.69-21.64-20.47-22.37-41.7h22.37V99.61z M52.87,52.23H30.53c0.88-20.97,10.49-38.46,22.34-41.12V52.23z M52.87,7.97
      L52.87,7.97c-15.3,2.27-27.39,21.02-28.39,44.26H8C9.57,28.45,28.81,9.5,52.87,7.97z M24.45,57.92c0.83,23.51,13,42.55,28.42,44.84
      l0,0C28.61,101.22,9.25,81.97,7.96,57.92H24.45z"/>
  </g>
</svg>
