<?xml version="1.0" encoding="utf-8"?>
<!-- Generator: Adobe Illustrator 25.1.0, SVG Export Plug-In . SVG Version: 6.00 Build 0)  -->
<svg version="1.1"
  xmlns="http://www.w3.org/2000/svg"
  xmlns:xlink="http://www.w3.org/1999/xlink" x="0px" y="0px" viewBox="0 0 506.75 512" style="enable-background:new 0 0 506.75 512;" xml:space="preserve">
  <g>
    <path fill="#6D7D87" d="M347.21,207.09l-105.5,148.04l-105.5-148.04c-0.3-0.48-0.81-0.79-1.38-0.82l-9.82-0.53
      c-1.38-0.07-2.28,1.42-1.57,2.6l106.39,152.01h-94.53c-0.95,0-1.72,0.77-1.72,1.72v9.49c0,0.95,0.77,1.72,1.72,1.72h210.56
      c0.95,0,1.72-0.77,1.72-1.72v-9.49c0-0.95-0.77-1.72-1.72-1.72h-92.26l106.39-152.01c0.71-1.18-0.19-2.68-1.57-2.6l-9.82,0.53
      C348.02,206.3,347.5,206.6,347.21,207.09z"/>
    <path fill="#6D7D87" d="M234.11,251.71v65.18c0,0.95,0.77,1.72,1.72,1.72h9.49c0.95,0,1.72-0.77,1.72-1.72v-65.12
      c67.67-3,121.61-58.18,121.61-125.82C368.66,56.39,311.61,0,241.23,0c-70.37,0-127.42,56.39-127.42,125.96
      C113.81,193.16,167.05,248.06,234.11,251.71z M247.04,18.01c55.37,2.86,99.81,46.28,103.4,100.83h-37.49
      C310.64,65.29,282.47,22.28,247.04,18.01L247.04,18.01z M247.04,24.99c27.56,5.03,50.11,45.37,52.14,93.85h-52.14V24.99z
      M247.04,131.77h52.2c-1.68,49.07-24.4,90.08-52.2,95.16V131.77z M247.04,233.91c35.72-4.3,64.08-47.98,65.98-102.14h37.52
      C347.59,186.93,302.86,231.03,247.04,233.91L247.04,233.91z M234.11,226.64c-27.2-6.12-49.24-46.58-50.89-94.87h50.89V226.64z
      M234.11,118.84h-50.83c2-47.7,23.87-87.49,50.83-93.55V118.84z M234.11,18.13L234.11,18.13c-34.81,5.16-62.31,47.82-64.6,100.7
      h-37.49C135.58,64.72,179.36,21.61,234.11,18.13z M169.44,131.77c1.88,53.49,29.57,96.82,64.67,102.02l0,0
      c-55.2-3.51-99.26-47.29-102.19-102.02H169.44z"/>
  </g>
  <g>
    <path fill="#6D7D87" d="M426.5,511.06h-14.54c-0.55,0-1-0.45-1-1v-71.21c0-0.55,0.45-1,1-1h14.54c0.55,0,1,0.45,1,1v71.21
      C427.5,510.61,427.05,511.06,426.5,511.06z"/>
    <path fill="#6D7D87" d="M102.12,511.06H87.58c-0.55,0-1-0.45-1-1v-71.21c0-0.55,0.45-1,1-1h14.54c0.55,0,1,0.45,1,1v71.21
      C103.12,510.61,102.67,511.06,102.12,511.06z"/>
    <path fill="#6D7D87" d="M230.93,511.06h-14.54c-0.55,0-1-0.45-1-1v-71.21c0-0.55,0.45-1,1-1h14.54c0.55,0,1,0.45,1,1v71.21
      C231.93,510.61,231.48,511.06,230.93,511.06z"/>
    <path fill="#6D7D87" d="M307.76,437.85h-19.81h-13.1h-19.81c-0.95,0-1.72,0.77-1.72,1.72v13.1c0,0.95,0.77,1.72,1.72,1.72h18.09v54.94
      c0,0.95,0.77,1.72,1.72,1.72h13.1c0.95,0,1.72-0.77,1.72-1.72V454.4h18.09c0.95,0,1.72-0.77,1.72-1.72v-13.1
      C309.48,438.62,308.71,437.85,307.76,437.85z"/>
    <path fill="#6D7D87" d="M378.01,510.93l14.09,0.21c1.43,0.02,2.26-1.61,1.4-2.75l-20.26-27.02c0,0,14.28-3.21,14.28-10.38v-1.18V454.4
      c0-9.14-7.41-16.54-16.54-16.54h0h-23.25h-13.1c-1.9,0-3.44,1.54-3.44,3.44v13.1v54.94c0,0.95,0.77,1.72,1.72,1.72h13.1
      c0.95,0,1.72-0.77,1.72-1.72v-22.99h11.22L378.01,510.93z M344.5,448.72h19.6c3.8,0,6.88,3.08,6.88,6.88v7.33
      c0,3.8-3.08,6.88-6.88,6.88h-19.6V448.72z"/>
    <path fill="#6D7D87" d="M54.29,438.93l-16.81,42.36c-0.57,1.45-2.62,1.45-3.2,0l-16.81-42.36c-0.26-0.65-0.88-1.08-1.58-1.09
      L1.74,437.7c-1.22-0.01-2.07,1.22-1.62,2.35l28.12,70.86c0.26,0.66,0.89,1.09,1.6,1.09h12.08c0.71,0,1.34-0.43,1.6-1.09
      l28.12-70.86c0.45-1.14-0.39-2.37-1.62-2.35l-14.16,0.15C55.17,437.85,54.55,438.28,54.29,438.93z"/>
    <path fill="#6D7D87" d="M181.36,438.93l-16.81,42.36c-0.57,1.45-2.62,1.45-3.2,0l-16.81-42.36c-0.26-0.65-0.88-1.08-1.58-1.09
      l-14.16-0.15c-1.22-0.01-2.07,1.22-1.62,2.35l28.12,70.86c0.26,0.66,0.89,1.09,1.6,1.09h12.08c0.71,0,1.34-0.43,1.6-1.09
      l28.12-70.86c0.45-1.14-0.39-2.37-1.62-2.35l-14.16,0.15C182.24,437.85,181.62,438.28,181.36,438.93z"/>
    <path fill="#6D7D87" d="M490.21,437.85h-23.25h-13.1c-1.9,0-3.44,1.54-3.44,3.44v13.1v54.94c0,0.95,0.77,1.72,1.72,1.72h13.1
      c0.95,0,1.72-0.77,1.72-1.72v-22.99h23.25c9.14,0,16.54-7.41,16.54-16.54V454.4C506.75,445.26,499.34,437.85,490.21,437.85z
      M493.44,465.77c0,3.8-3.08,6.88-6.88,6.88h-19.6v-21.09h19.6c3.8,0,6.88,3.08,6.88,6.88V465.77z"/>
  </g>
</svg>
