<?xml version="1.0" encoding="utf-8"?>
<!-- Generator: Adobe Illustrator 25.1.0, SVG Export Plug-In . SVG Version: 6.00 Build 0)  -->
<svg version="1.1"
  xmlns="http://www.w3.org/2000/svg"
  xmlns:xlink="http://www.w3.org/1999/xlink" x="0px" y="0px" viewBox="0 0 498.77 80" style="enable-background:new 0 0 498.77 80;" xml:space="preserve">
  <g>
    <path fill="#6D7D87" d="M50.02,44.38L27.41,76.11L4.8,44.38c-0.06-0.1-0.17-0.17-0.3-0.18L2.4,44.09c-0.3-0.02-0.49,0.3-0.34,0.56
			l22.8,32.58H4.6c-0.2,0-0.37,0.17-0.37,0.37v2.03C4.24,79.83,4.4,80,4.6,80h45.13c0.2,0,0.37-0.17,0.37-0.37V77.6
			c0-0.2-0.17-0.37-0.37-0.37H29.96l22.8-32.58c0.15-0.25-0.04-0.57-0.34-0.56l-2.11,0.11C50.19,44.21,50.08,44.28,50.02,44.38z"/>
    <path fill="#6D7D87" d="M25.78,53.94v13.97c0,0.2,0.17,0.37,0.37,0.37h2.03c0.2,0,0.37-0.17,0.37-0.37V53.96
			c14.5-0.64,26.06-12.47,26.06-26.96C54.62,12.09,42.39,0,27.31,0C12.23,0,0,12.09,0,26.99C0,41.4,11.41,53.16,25.78,53.94z
			M28.55,3.86c11.87,0.61,21.39,9.92,22.16,21.61h-8.03C42.18,13.99,36.15,4.77,28.55,3.86L28.55,3.86z M28.55,5.35
			c5.91,1.08,10.74,9.72,11.17,20.11H28.55V5.35z M28.55,28.24h11.19c-0.36,10.52-5.23,19.31-11.19,20.39V28.24z M28.55,50.13
			c7.65-0.92,13.73-10.28,14.14-21.89h8.04C50.1,40.06,40.51,49.51,28.55,50.13L28.55,50.13z M25.78,48.57
			c-5.83-1.31-10.55-9.98-10.91-20.33h10.91V48.57z M25.78,25.47H14.89C15.32,15.24,20,6.72,25.78,5.42V25.47z M25.78,3.89
			L25.78,3.89c-7.46,1.1-13.35,10.25-13.84,21.58H3.9C4.67,13.87,14.05,4.63,25.78,3.89z M11.92,28.24
			c0.4,11.46,6.34,20.75,13.86,21.86l0,0C13.95,49.35,4.51,39.97,3.88,28.24H11.92z"/>
  </g>
  <g>
    <path fill="#6D7D87" d="M432.51,75.08h-11.62c-0.55,0-1-0.45-1-1V15.79c0-0.55,0.45-1,1-1h11.62c0.55,0,1,0.45,1,1v58.29
			C433.51,74.64,433.06,75.08,432.51,75.08z"/>
    <path fill="#6D7D87" d="M165.36,75.08h-11.62c-0.55,0-1-0.45-1-1V15.79c0-0.55,0.45-1,1-1h11.62c0.55,0,1,0.45,1,1v58.29
			C166.36,74.64,165.92,75.08,165.36,75.08z"/>
    <path fill="#6D7D87" d="M271.44,75.08h-11.62c-0.55,0-1-0.45-1-1V15.79c0-0.55,0.45-1,1-1h11.62c0.55,0,1,0.45,1,1v58.29
			C272.44,74.64,272,75.08,271.44,75.08z"/>
    <path fill="#6D7D87" d="M334.89,14.79h-16.32h-10.79h-16.32c-0.78,0-1.42,0.63-1.42,1.42V27c0,0.78,0.63,1.42,1.42,1.42h14.9v45.25
			c0,0.78,0.63,1.42,1.42,1.42h10.79c0.78,0,1.42-0.63,1.42-1.42V28.42h14.9c0.78,0,1.42-0.63,1.42-1.42V16.21
			C336.31,15.43,335.68,14.79,334.89,14.79z"/>
    <path fill="#6D7D87" d="M392.75,74.97l11.61,0.17c1.18,0.02,1.86-1.32,1.15-2.27l-16.68-22.25c0,0,11.76-2.64,11.76-8.55v-0.97V28.42
			c0-7.52-6.1-13.62-13.62-13.62l0,0h-19.15h-10.79c-1.56,0-2.83,1.27-2.83,2.83v10.79v45.25c0,0.78,0.63,1.42,1.42,1.42h10.79
			c0.78,0,1.42-0.63,1.42-1.42V54.74h9.24L392.75,74.97z M365.15,23.74h16.14c3.13,0,5.67,2.54,5.67,5.67v6.04
			c0,3.13-2.54,5.67-5.67,5.67h-16.14V23.74z"/>
    <path fill="#6D7D87" d="M126.15,15.68l-13.84,34.88c-0.47,1.19-2.16,1.19-2.63,0L95.83,15.68c-0.21-0.53-0.73-0.89-1.3-0.89
			l-11.66-0.12c-1.01-0.01-1.7,1-1.33,1.94l23.16,58.36c0.21,0.54,0.74,0.89,1.32,0.89h9.95c0.58,0,1.1-0.35,1.32-0.89l23.16-58.36
			c0.37-0.94-0.32-1.95-1.33-1.94l-11.66,0.12C126.87,14.79,126.36,15.14,126.15,15.68z"/>
    <path fill="#6D7D87" d="M230.8,15.68l-13.84,34.88c-0.47,1.19-2.16,1.19-2.63,0l-13.84-34.88c-0.21-0.53-0.73-0.89-1.3-0.89
			l-11.66-0.12c-1.01-0.01-1.7,1-1.33,1.94l23.16,58.36c0.21,0.54,0.74,0.89,1.32,0.89h9.95c0.58,0,1.1-0.35,1.32-0.89l23.16-58.36
			c0.37-0.94-0.32-1.95-1.33-1.94l-11.66,0.12C231.52,14.79,231.01,15.14,230.8,15.68z"/>
    <path fill="#6D7D87" d="M485.15,14.79H466h-10.79c-1.56,0-2.83,1.27-2.83,2.83v10.79v45.25c0,0.78,0.63,1.42,1.42,1.42h10.79
			c0.78,0,1.42-0.63,1.42-1.42V54.74h19.15c7.52,0,13.62-6.1,13.62-13.62V28.42C498.77,20.89,492.67,14.79,485.15,14.79z
			M487.81,37.78c0,3.13-2.54,5.67-5.67,5.67H466V26.08h16.14c3.13,0,5.67,2.54,5.67,5.67V37.78z"/>
  </g>
</svg>
