<?xml version="1.0" encoding="utf-8"?>
<!-- Generator: Adobe Illustrator 25.1.0, SVG Export Plug-In . SVG Version: 6.00 Build 0)  -->
<svg version="1.1"
  xmlns="http://www.w3.org/2000/svg"
  xmlns:xlink="http://www.w3.org/1999/xlink" viewBox="0 0 176.01 228.08" xml:space="preserve">
  <g>
    <path fill="#6D7D87" d="M134.59,123.02l-46.37,65.07l-46.37-65.07c-0.13-0.21-0.36-0.35-0.61-0.36l-4.32-0.23
		c-0.61-0.03-1,0.62-0.69,1.14l46.76,66.82H41.44c-0.42,0-0.76,0.34-0.76,0.76v4.17c0,0.42,0.34,0.76,0.76,0.76h92.55
		c0.42,0,0.76-0.34,0.76-0.76v-4.17c0-0.42-0.34-0.76-0.76-0.76H93.44l46.76-66.82c0.31-0.52-0.08-1.18-0.69-1.14l-4.32,0.23
		C134.94,122.67,134.72,122.81,134.59,123.02z"/>
    <path fill="#6D7D87" d="M84.87,142.64v28.65c0,0.42,0.34,0.76,0.76,0.76h4.17c0.42,0,0.76-0.34,0.76-0.76v-28.62
		c29.75-1.32,53.45-25.57,53.45-55.3c0-30.58-25.07-55.36-56.01-55.36C57.07,32,32,56.79,32,87.36
		C32,116.9,55.4,141.03,84.87,142.64z M90.56,39.92c24.34,1.26,43.87,20.34,45.45,44.32h-16.48
		C118.52,60.7,106.13,41.79,90.56,39.92L90.56,39.92z M90.56,42.98c12.11,2.21,22.02,19.94,22.92,41.25H90.56V42.98z M90.56,89.92
		h22.94c-0.74,21.57-10.72,39.6-22.94,41.83V89.92z M90.56,134.81c15.7-1.89,28.16-21.09,29-44.89h16.49
		C134.76,114.16,115.09,133.54,90.56,134.81L90.56,134.81z M84.87,131.61c-11.96-2.69-21.64-20.47-22.37-41.7h22.37V131.61z
		M84.87,84.23H62.53c0.88-20.97,10.49-38.46,22.34-41.12V84.23z M84.87,39.97L84.87,39.97c-15.3,2.27-27.39,21.02-28.39,44.26H40
		C41.57,60.45,60.81,41.5,84.87,39.97z M56.45,89.92c0.83,23.51,13,42.55,28.42,44.84l0,0c-24.26-1.54-43.63-20.78-44.92-44.84
		H56.45z"/>
  </g>
</svg>
