<svg width="20" height="20" viewBox="0 0 20 20" fill="none" xmlns="http://www.w3.org/2000/svg">
<path d="M7.62796 4.50633C8.6835 2.61279 9.21127 1.66602 10.0003 1.66602C10.7894 1.66602 11.3171 2.61279 12.3727 4.50633L12.6458 4.99621C12.9457 5.5343 13.0957 5.80334 13.3295 5.98085C13.5634 6.15837 13.8546 6.22427 14.4371 6.35606L14.9674 6.47604C17.0171 6.93981 18.042 7.1717 18.2858 7.95579C18.5296 8.73989 17.831 9.55691 16.4336 11.191L16.0721 11.6137C15.675 12.078 15.4764 12.3102 15.3871 12.5974C15.2978 12.8847 15.3278 13.1944 15.3878 13.814L15.4425 14.378C15.6538 16.5582 15.7594 17.6483 15.121 18.1329C14.4827 18.6175 13.5231 18.1756 11.6039 17.292L11.1074 17.0634C10.5621 16.8123 10.2894 16.6867 10.0003 16.6867C9.71128 16.6867 9.4386 16.8123 8.89323 17.0634L8.39672 17.292C6.47755 18.1756 5.51797 18.6175 4.87962 18.1329C4.24126 17.6483 4.34689 16.5582 4.55816 14.378L4.61281 13.814C4.67285 13.1944 4.70286 12.8847 4.61354 12.5974C4.52422 12.3102 4.32568 12.078 3.92859 11.6137L3.56707 11.191C2.1697 9.55691 1.47101 8.73989 1.71484 7.95579C1.95867 7.1717 2.98354 6.93981 5.03327 6.47604L5.56356 6.35606C6.14603 6.22427 6.43727 6.15837 6.67111 5.98085C6.90495 5.80334 7.05493 5.5343 7.35488 4.99621L7.62796 4.50633Z" fill="#FFC23D"/>
</svg>
